# xmcd
#
# Track frame offsets: 
#        150
#        18076
#        32584
#        41661
#        56753
#        70059
#        76022
#        87094
#        110274
#        120074
#        149323
#        164218
#
# Disc length: 2484 seconds
#
# Revision: 0
# Processed by: cddbd v1.5.2PL0 Copyright (c) Steve Scherf et al.
# Submitted via: ExactAudioCopyFreeDBPlugin 1.0
#
DISCID=8d09b20c
DTITLE=Ben Prestage - Live At Will's Pub, Orlando
DYEAR=2014
DGENRE=Blues
TTITLE0=You Don't Know My Mind
TTITLE1=Crow Jane
TTITLE2=Sugarfoot Rag
TTITLE3=Devil Went Down to Florida
TTITLE4=That Will Never Happen No More
TTITLE5=Banjo Medley
TTITLE6=Brother John Got Shot
TTITLE7=Mountain Dew
TTITLE8=Georgia Buck
TTITLE9=One Crow Murder
TTITLE10=Railroad Bill
TTITLE11=Ghost Riders
EXTD=
EXTT0=
EXTT1=
EXTT2=
EXTT3=
EXTT4=
EXTT5=
EXTT6=
EXTT7=
EXTT8=
EXTT9=
EXTT10=
EXTT11=
PLAYORDER=
